<svg width="32" height="32" viewBox="0 0 32 32" fill="none" xmlns="http://www.w3.org/2000/svg">
<rect width="32" height="32" rx="16" fill="#F4F5EB"/>
<path d="M25.2937 4.36812C26.9875 6.84374 27.0062 10.425 26.45 13.5625C25.775 12.6562 25.1 11.7375 24.4187 10.8562C23.275 9.38124 22.1312 7.98749 20.9625 6.85624C21.4625 6.12437 22.2937 5.50437 23.1625 5.07249C23.975 4.66499 24.8187 4.43937 25.2937 4.36812ZM6.70624 4.36812C7.18124 4.43937 8.02499 4.66499 8.83749 5.07249C9.70624 5.50437 10.5375 6.12437 11.0375 6.85624C9.86874 7.98749 8.72499 9.38124 7.58124 10.8562C6.89999 11.7375 6.22499 12.65 5.54999 13.5562C4.99374 10.4187 5.00624 6.83749 6.70624 4.36812ZM20.25 10.175C21.1937 10.175 22.1312 10.3812 22.925 10.7812C23.125 11.0312 23.325 11.2875 23.525 11.5437C25.9187 14.6562 28.3187 18.2375 30.825 20.5375C30.0687 20.8375 29.3 21.25 28.5187 21.725C28.5187 20.8062 28.1562 19.8437 27.5875 18.9312C26.725 17.5375 25.3562 16.175 23.7812 15C22.525 14.0625 21.3875 13.6187 20.3937 13.575C20.25 13.5687 20.1062 13.5687 19.9687 13.5812C18.875 13.6562 18.0125 14.2375 17.475 14.9812C16.9375 15.725 16.6812 16.625 16.7125 17.4562C16.7437 18.0812 16.95 18.7125 17.3875 19.1375H14.6125C15.05 18.7125 15.2562 18.0812 15.2875 17.4562C15.3187 16.625 15.0625 15.725 14.525 14.9812C13.9875 14.2375 13.125 13.6562 12.0312 13.5812C11.9625 13.575 11.8937 13.5687 11.8187 13.5687C11.75 13.5687 11.675 13.5687 11.6062 13.575C10.6125 13.6187 9.47499 14.0625 8.21874 15C6.64374 16.175 5.26874 17.5375 4.40624 18.9312C3.83749 19.8437 3.47499 20.8062 3.47499 21.725C2.69374 21.2437 1.93124 20.8375 1.17499 20.5375C3.67499 18.2375 6.07499 14.6625 8.47499 11.5437C8.67499 11.2875 8.87499 11.0312 9.07499 10.7812C9.86874 10.3812 10.8062 10.175 11.75 10.175C13.2187 10.175 14.675 10.6687 15.6 11.6L16 11.9937L16.4 11.6C17.325 10.6687 18.7812 10.175 20.25 10.175ZM20.25 14.8875C21.4812 14.8875 22.5312 15.8375 22.5312 17.0437C22.5312 18.25 21.4812 19.2 20.25 19.2C19.0187 19.2 17.9687 18.25 17.9687 17.0437C17.9687 15.8375 19.0187 14.8875 20.25 14.8875ZM11.75 14.8875C12.9812 14.8875 14.0312 15.8375 14.0312 17.0437C14.0312 18.25 12.9812 19.2 11.75 19.2C10.5187 19.2 9.46874 18.25 9.46874 17.0437C9.46874 15.8375 10.5187 14.8875 11.75 14.8875ZM20.25 16.0125C19.5812 16.0125 19.0937 16.4937 19.0937 17.0437C19.0937 17.5937 19.5812 18.075 20.25 18.075C20.9187 18.075 21.4062 17.5937 21.4062 17.0437C21.4062 16.4937 20.9187 16.0125 20.25 16.0125ZM11.75 16.0125C11.0812 16.0125 10.5937 16.4937 10.5937 17.0437C10.5937 17.5937 11.0812 18.075 11.75 18.075C12.4187 18.075 12.9062 17.5937 12.9062 17.0437C12.9062 16.4937 12.4187 16.0125 11.75 16.0125ZM18.6812 19.8312C20.2625 20.5375 21.4812 21.0687 22.3125 21.7187C23.225 22.425 23.7312 23.2312 23.9125 24.7562C21.4375 26.3125 18.7937 27.6312 16 27.6312C13.2062 27.6312 10.5625 26.3125 8.08749 24.7562C8.26874 23.2312 8.77499 22.425 9.68749 21.7187C10.5187 21.0687 11.7375 20.5375 13.3187 19.8312C13.3562 20.5 13.6875 21.1062 14.1437 21.5562C14.4625 21.8812 14.8562 22.1375 15.3 22.275C15.1187 22.8312 14.9125 23.1875 14.7312 23.3812C14.4937 23.6375 14.3375 23.6625 14.1562 23.6375C13.975 23.6187 13.7625 23.4937 13.6062 23.325C13.45 23.1562 13.375 22.9375 13.375 22.8812H12.25C12.25 23.3562 12.4687 23.7562 12.775 24.0875C13.0875 24.4187 13.5062 24.6937 14.0187 24.7562C14.5312 24.8187 15.1125 24.6187 15.5562 24.15C15.7187 23.975 15.8687 23.7687 16 23.525C16.1312 23.7687 16.2812 23.975 16.4437 24.15C16.8875 24.6187 17.4687 24.8187 17.9812 24.7562C18.4937 24.6937 18.9125 24.4187 19.225 24.0875C19.5312 23.7562 19.75 23.3562 19.75 22.8812H18.625C18.625 22.9375 18.55 23.1562 18.3937 23.325C18.2375 23.4937 18.025 23.6187 17.8437 23.6375C17.6625 23.6625 17.5062 23.6375 17.2687 23.3812C17.0875 23.1875 16.8812 22.8312 16.7 22.275C17.1437 22.1375 17.5375 21.8812 17.8562 21.5562C18.3125 21.1062 18.6437 20.5 18.6812 19.8312ZM17.4187 20.2625C17.3312 20.4375 17.2125 20.6125 17.0625 20.7625C16.75 21.075 16.3437 21.2625 16 21.2625C15.6562 21.2625 15.25 21.075 14.9375 20.7625C14.7875 20.6125 14.6687 20.4375 14.5812 20.2625H17.4187Z" fill="url(#paint0_linear_2_139)"/>
<defs>
<linearGradient id="paint0_linear_2_139" x1="16" y1="4.36812" x2="16" y2="27.6312" gradientUnits="userSpaceOnUse">
<stop offset="0.0001" stop-color="#919556"/>
<stop offset="1" stop-color="#6D712E"/>
</linearGradient>
</defs>
</svg>
